<mxfile host="app.diagrams.net" modified="2021-04-15T01:23:06.126Z" agent="5.0 (Macintosh; Intel Mac OS X 11_2_3) AppleWebKit/537.36 (KHTML, like Gecko) Chrome/89.0.4389.114 Safari/537.36" etag="bdjnEswX7kkap8uxTCYF" version="14.6.0" type="github">
  <diagram name="Page-1" id="822b0af5-4adb-64df-f703-e8dfc1f81529">
    <mxGraphModel dx="1186" dy="1630" grid="1" gridSize="10" guides="1" tooltips="1" connect="1" arrows="1" fold="1" page="1" pageScale="1" pageWidth="1100" pageHeight="850" background="#ffffff" math="0" shadow="0">
      <root>
        <mxCell id="0" />
        <mxCell id="1" parent="0" />
        <mxCell id="NnCFKsnQ_4Gn3ETB7gWK-1" value="" style="fontColor=#0066CC;verticalAlign=top;verticalLabelPosition=bottom;labelPosition=center;align=center;html=1;outlineConnect=0;fillColor=#CCCCCC;strokeColor=#6881B3;gradientColor=none;gradientDirection=north;strokeWidth=2;shape=mxgraph.networks.security_camera;" vertex="1" parent="1">
          <mxGeometry x="80" y="110" width="50" height="35" as="geometry" />
        </mxCell>
        <mxCell id="NnCFKsnQ_4Gn3ETB7gWK-10" style="edgeStyle=elbowEdgeStyle;rounded=0;orthogonalLoop=1;jettySize=auto;html=1;elbow=vertical;" edge="1" parent="1" source="NnCFKsnQ_4Gn3ETB7gWK-2" target="NnCFKsnQ_4Gn3ETB7gWK-1">
          <mxGeometry relative="1" as="geometry" />
        </mxCell>
        <mxCell id="NnCFKsnQ_4Gn3ETB7gWK-11" value="&lt;font style=&quot;font-size: 16px&quot;&gt;pull video&lt;br&gt;stream data&lt;br&gt;via RTSP&lt;/font&gt;" style="edgeLabel;html=1;align=center;verticalAlign=middle;resizable=0;points=[];" vertex="1" connectable="0" parent="NnCFKsnQ_4Gn3ETB7gWK-10">
          <mxGeometry x="-0.0049" y="1" relative="1" as="geometry">
            <mxPoint x="1" y="-3" as="offset" />
          </mxGeometry>
        </mxCell>
        <mxCell id="NnCFKsnQ_4Gn3ETB7gWK-12" style="rounded=0;orthogonalLoop=1;jettySize=auto;html=1;exitX=0.5;exitY=1;exitDx=0;exitDy=0;shape=link;dashed=1;dashPattern=1 1;" edge="1" parent="1" source="NnCFKsnQ_4Gn3ETB7gWK-2" target="NnCFKsnQ_4Gn3ETB7gWK-7">
          <mxGeometry relative="1" as="geometry" />
        </mxCell>
        <mxCell id="NnCFKsnQ_4Gn3ETB7gWK-13" style="shape=link;rounded=0;orthogonalLoop=1;jettySize=auto;html=1;entryX=0;entryY=0.5;entryDx=0;entryDy=0;dashed=1;dashPattern=1 1;" edge="1" parent="1" source="NnCFKsnQ_4Gn3ETB7gWK-2" target="NnCFKsnQ_4Gn3ETB7gWK-5">
          <mxGeometry relative="1" as="geometry" />
        </mxCell>
        <mxCell id="NnCFKsnQ_4Gn3ETB7gWK-17" style="edgeStyle=none;rounded=0;orthogonalLoop=1;jettySize=auto;html=1;entryX=0.175;entryY=0.5;entryDx=0;entryDy=0;entryPerimeter=0;endArrow=block;endFill=0;shape=flexArrow;" edge="1" parent="1" source="NnCFKsnQ_4Gn3ETB7gWK-2" target="NnCFKsnQ_4Gn3ETB7gWK-8">
          <mxGeometry relative="1" as="geometry" />
        </mxCell>
        <mxCell id="NnCFKsnQ_4Gn3ETB7gWK-18" value="publish&lt;br style=&quot;font-size: 15px&quot;&gt;to&lt;br&gt;&amp;lt;topic-id&amp;gt;&lt;br style=&quot;font-size: 15px&quot;&gt;filename&lt;br style=&quot;font-size: 15px&quot;&gt;CID&lt;br style=&quot;font-size: 15px&quot;&gt;factory ID&lt;br style=&quot;font-size: 15px&quot;&gt;device ID" style="edgeLabel;html=1;align=center;verticalAlign=middle;resizable=0;points=[];fontSize=15;" vertex="1" connectable="0" parent="NnCFKsnQ_4Gn3ETB7gWK-17">
          <mxGeometry x="-0.1245" relative="1" as="geometry">
            <mxPoint as="offset" />
          </mxGeometry>
        </mxCell>
        <mxCell id="NnCFKsnQ_4Gn3ETB7gWK-19" value="insert new row&lt;br&gt;filename&lt;br&gt;CID&lt;br&gt;factory ID&lt;br&gt;device ID&lt;br&gt;start timestamp&lt;br&gt;end timestamp" style="edgeStyle=none;shape=flexArrow;rounded=0;orthogonalLoop=1;jettySize=auto;html=1;fontSize=15;endArrow=block;endFill=0;dashed=1;dashPattern=1 2;fillColor=#ffffff;" edge="1" parent="1" source="NnCFKsnQ_4Gn3ETB7gWK-2" target="NnCFKsnQ_4Gn3ETB7gWK-3">
          <mxGeometry x="0.1242" y="39" relative="1" as="geometry">
            <mxPoint as="offset" />
          </mxGeometry>
        </mxCell>
        <mxCell id="NnCFKsnQ_4Gn3ETB7gWK-2" value="" style="aspect=fixed;perimeter=ellipsePerimeter;html=1;align=center;shadow=0;dashed=0;spacingTop=3;image;image=img/lib/active_directory/generic_server.svg;" vertex="1" parent="1">
          <mxGeometry x="70" y="280" width="117.6" height="210" as="geometry" />
        </mxCell>
        <mxCell id="NnCFKsnQ_4Gn3ETB7gWK-3" value="&lt;font style=&quot;font-size: 14px&quot;&gt;MongoDB&lt;/font&gt;" style="aspect=fixed;perimeter=ellipsePerimeter;html=1;align=center;shadow=0;dashed=0;spacingTop=3;image;image=img/lib/active_directory/database_server.svg;" vertex="1" parent="1">
          <mxGeometry x="360" y="-270" width="133.25" height="162.5" as="geometry" />
        </mxCell>
        <mxCell id="NnCFKsnQ_4Gn3ETB7gWK-16" style="shape=link;rounded=0;orthogonalLoop=1;jettySize=auto;html=1;dashed=1;dashPattern=1 1;" edge="1" parent="1" source="NnCFKsnQ_4Gn3ETB7gWK-4" target="NnCFKsnQ_4Gn3ETB7gWK-7">
          <mxGeometry relative="1" as="geometry" />
        </mxCell>
        <mxCell id="NnCFKsnQ_4Gn3ETB7gWK-21" style="edgeStyle=none;shape=flexArrow;rounded=0;orthogonalLoop=1;jettySize=auto;html=1;entryX=0.75;entryY=0.67;entryDx=0;entryDy=0;entryPerimeter=0;fontSize=15;endArrow=block;endFill=0;dashed=1;" edge="1" parent="1" source="NnCFKsnQ_4Gn3ETB7gWK-4" target="NnCFKsnQ_4Gn3ETB7gWK-8">
          <mxGeometry relative="1" as="geometry" />
        </mxCell>
        <mxCell id="NnCFKsnQ_4Gn3ETB7gWK-26" value="subscribe&lt;br&gt;to&lt;br&gt;&amp;lt;topic-id&amp;gt;" style="edgeLabel;html=1;align=center;verticalAlign=middle;resizable=0;points=[];fontSize=15;" vertex="1" connectable="0" parent="NnCFKsnQ_4Gn3ETB7gWK-21">
          <mxGeometry x="0.0269" y="1" relative="1" as="geometry">
            <mxPoint as="offset" />
          </mxGeometry>
        </mxCell>
        <mxCell id="NnCFKsnQ_4Gn3ETB7gWK-4" value="" style="aspect=fixed;perimeter=ellipsePerimeter;html=1;align=center;shadow=0;dashed=0;spacingTop=3;image;image=img/lib/active_directory/generic_server.svg;" vertex="1" parent="1">
          <mxGeometry x="960" y="760" width="84" height="150" as="geometry" />
        </mxCell>
        <mxCell id="NnCFKsnQ_4Gn3ETB7gWK-14" style="shape=link;rounded=0;orthogonalLoop=1;jettySize=auto;html=1;dashed=1;dashPattern=1 1;" edge="1" parent="1" source="NnCFKsnQ_4Gn3ETB7gWK-5" target="NnCFKsnQ_4Gn3ETB7gWK-6">
          <mxGeometry relative="1" as="geometry" />
        </mxCell>
        <mxCell id="NnCFKsnQ_4Gn3ETB7gWK-23" value="subscribe&lt;br&gt;to&lt;br&gt;&amp;lt;topic-id&amp;gt;" style="edgeStyle=none;shape=flexArrow;rounded=0;orthogonalLoop=1;jettySize=auto;html=1;entryX=0.5;entryY=0.16;entryDx=0;entryDy=0;entryPerimeter=0;fontSize=15;endArrow=block;endFill=0;dashed=1;" edge="1" parent="1" source="NnCFKsnQ_4Gn3ETB7gWK-5" target="NnCFKsnQ_4Gn3ETB7gWK-8">
          <mxGeometry x="-0.126" y="-17" relative="1" as="geometry">
            <mxPoint as="offset" />
          </mxGeometry>
        </mxCell>
        <mxCell id="NnCFKsnQ_4Gn3ETB7gWK-5" value="" style="aspect=fixed;perimeter=ellipsePerimeter;html=1;align=center;shadow=0;dashed=0;spacingTop=3;image;image=img/lib/active_directory/generic_server.svg;" vertex="1" parent="1">
          <mxGeometry x="920" y="-150" width="84" height="150" as="geometry" />
        </mxCell>
        <mxCell id="NnCFKsnQ_4Gn3ETB7gWK-15" style="shape=link;rounded=0;orthogonalLoop=1;jettySize=auto;html=1;dashed=1;dashPattern=1 1;" edge="1" parent="1" source="NnCFKsnQ_4Gn3ETB7gWK-6" target="NnCFKsnQ_4Gn3ETB7gWK-4">
          <mxGeometry relative="1" as="geometry" />
        </mxCell>
        <mxCell id="NnCFKsnQ_4Gn3ETB7gWK-22" style="edgeStyle=none;shape=flexArrow;rounded=0;orthogonalLoop=1;jettySize=auto;html=1;entryX=0.825;entryY=0.5;entryDx=0;entryDy=0;entryPerimeter=0;fontSize=15;endArrow=block;endFill=0;dashed=1;" edge="1" parent="1" source="NnCFKsnQ_4Gn3ETB7gWK-6" target="NnCFKsnQ_4Gn3ETB7gWK-8">
          <mxGeometry relative="1" as="geometry" />
        </mxCell>
        <mxCell id="NnCFKsnQ_4Gn3ETB7gWK-25" value="subscribe&lt;br&gt;to&lt;br&gt;&amp;lt;topic-id&amp;gt;" style="edgeLabel;html=1;align=center;verticalAlign=middle;resizable=0;points=[];fontSize=15;" vertex="1" connectable="0" parent="NnCFKsnQ_4Gn3ETB7gWK-22">
          <mxGeometry x="0.0301" relative="1" as="geometry">
            <mxPoint as="offset" />
          </mxGeometry>
        </mxCell>
        <mxCell id="NnCFKsnQ_4Gn3ETB7gWK-6" value="" style="aspect=fixed;perimeter=ellipsePerimeter;html=1;align=center;shadow=0;dashed=0;spacingTop=3;image;image=img/lib/active_directory/generic_server.svg;" vertex="1" parent="1">
          <mxGeometry x="1140" y="315" width="84" height="150" as="geometry" />
        </mxCell>
        <mxCell id="NnCFKsnQ_4Gn3ETB7gWK-20" style="edgeStyle=none;shape=flexArrow;rounded=0;orthogonalLoop=1;jettySize=auto;html=1;exitX=1;exitY=0.5;exitDx=0;exitDy=0;entryX=0.25;entryY=0.67;entryDx=0;entryDy=0;entryPerimeter=0;fontSize=15;endArrow=block;endFill=0;dashed=1;" edge="1" parent="1" source="NnCFKsnQ_4Gn3ETB7gWK-7" target="NnCFKsnQ_4Gn3ETB7gWK-8">
          <mxGeometry relative="1" as="geometry" />
        </mxCell>
        <mxCell id="NnCFKsnQ_4Gn3ETB7gWK-27" value="subscribe&lt;br&gt;to&lt;br&gt;&amp;lt;topic-id&amp;gt;" style="edgeLabel;html=1;align=center;verticalAlign=middle;resizable=0;points=[];fontSize=15;" vertex="1" connectable="0" parent="NnCFKsnQ_4Gn3ETB7gWK-20">
          <mxGeometry x="0.0354" y="-3" relative="1" as="geometry">
            <mxPoint y="-1" as="offset" />
          </mxGeometry>
        </mxCell>
        <mxCell id="NnCFKsnQ_4Gn3ETB7gWK-7" value="" style="aspect=fixed;perimeter=ellipsePerimeter;html=1;align=center;shadow=0;dashed=0;spacingTop=3;image;image=img/lib/active_directory/generic_server.svg;" vertex="1" parent="1">
          <mxGeometry x="330" y="760" width="84" height="150" as="geometry" />
        </mxCell>
        <mxCell id="NnCFKsnQ_4Gn3ETB7gWK-8" value="Cloud&#xa;Pub/Sub" style="html=1;fillColor=#5184F3;strokeColor=none;verticalAlign=top;labelPosition=center;verticalLabelPosition=bottom;align=center;spacingTop=-6;fontSize=11;fontStyle=1;fontColor=#999999;shape=mxgraph.gcp2.hexIcon;prIcon=cloud_pubsub" vertex="1" parent="1">
          <mxGeometry x="630" y="315" width="157" height="140" as="geometry" />
        </mxCell>
      </root>
    </mxGraphModel>
  </diagram>
</mxfile>
